<svg width="25" height="25" viewBox="0 0 25 25" fill="none" xmlns="http://www.w3.org/2000/svg">
<g clip-path="url(#clip0_228_2023)">
<path d="M19.3498 12.9767C19.2385 12.8652 19.1062 12.7767 18.9606 12.7163C18.8151 12.656 18.659 12.6249 18.5014 12.6249C18.3438 12.6249 18.1878 12.656 18.0422 12.7163C17.8966 12.7767 17.7644 12.8652 17.653 12.9767L15.7402 14.8895C14.8534 14.6255 13.1987 14.0255 12.1499 12.9767C11.1011 11.9279 10.5011 10.2731 10.2371 9.38635L12.1499 7.47357C12.2614 7.36223 12.3499 7.22998 12.4103 7.08441C12.4706 6.93883 12.5017 6.78278 12.5017 6.62518C12.5017 6.46758 12.4706 6.31153 12.4103 6.16595C12.3499 6.02038 12.2614 5.88813 12.1499 5.77679L7.34992 0.976838C7.23857 0.865304 7.10633 0.776819 6.96075 0.716447C6.81518 0.656075 6.65912 0.625 6.50152 0.625C6.34393 0.625 6.18787 0.656075 6.0423 0.716447C5.89672 0.776819 5.76448 0.865304 5.65313 0.976838L2.39877 4.23121C1.94277 4.6872 1.68597 5.31359 1.69557 5.95319C1.72317 7.66197 2.17557 13.5971 6.85312 18.2747C11.5307 22.9522 17.4658 23.4034 19.1758 23.4322H19.2094C19.843 23.4322 20.4418 23.1826 20.8954 22.729L24.1497 19.4747C24.2613 19.3633 24.3498 19.2311 24.4101 19.0855C24.4705 18.9399 24.5016 18.7839 24.5016 18.6263C24.5016 18.4687 24.4705 18.3126 24.4101 18.167C24.3498 18.0215 24.2613 17.8892 24.1497 17.7779L19.3498 12.9767ZM19.1974 21.031C17.6998 21.0058 12.5759 20.6038 8.5499 16.5767C4.51074 12.5375 4.11955 7.39557 4.09555 5.92799L6.50152 3.52201L9.60469 6.62518L8.05311 8.17677C7.91206 8.3177 7.80836 8.49157 7.75137 8.68264C7.69439 8.87372 7.68591 9.07598 7.72671 9.27115C7.75551 9.40915 8.4599 12.6815 10.4519 14.6735C12.4439 16.6655 15.7162 17.3699 15.8542 17.3987C16.0493 17.4406 16.2518 17.4328 16.443 17.376C16.6343 17.3192 16.8081 17.2151 16.9486 17.0735L18.5014 15.5219L21.6046 18.6251L19.1974 21.031V21.031Z" fill="white"/>
</g>
<defs>
<clipPath id="clip0_228_2023">
<rect width="24" height="24" fill="white" transform="translate(0.5 0.625)"/>
</clipPath>
</defs>
</svg>
