<svg width="21" height="20" viewBox="0 0 21 20" fill="none" xmlns="http://www.w3.org/2000/svg">
<g clip-path="url(#clip0_228_1851)">
<path d="M3.6665 15.8333C3.6665 16.2753 3.8421 16.6992 4.15466 17.0118C4.46722 17.3244 4.89114 17.5 5.33317 17.5C5.7752 17.5 6.19912 17.3244 6.51168 17.0118C6.82424 16.6992 6.99984 16.2753 6.99984 15.8333C6.99984 15.3913 6.82424 14.9673 6.51168 14.6548C6.19912 14.3422 5.7752 14.1666 5.33317 14.1666C4.89114 14.1666 4.46722 14.3422 4.15466 14.6548C3.8421 14.9673 3.6665 15.3913 3.6665 15.8333Z" stroke="#00AED9" stroke-width="1.25" stroke-linecap="round" stroke-linejoin="round"/>
<path d="M12.8345 15.8333C12.8345 16.2753 13.0101 16.6992 13.3226 17.0118C13.6352 17.3244 14.0591 17.5 14.5011 17.5C14.9432 17.5 15.3671 17.3244 15.6797 17.0118C15.9922 16.6992 16.1678 16.2753 16.1678 15.8333C16.1678 15.3913 15.9922 14.9673 15.6797 14.6548C15.3671 14.3422 14.9432 14.1666 14.5011 14.1666C14.0591 14.1666 13.6352 14.3422 13.3226 14.6548C13.0101 14.9673 12.8345 15.3913 12.8345 15.8333Z" stroke="#00AED9" stroke-width="1.25" stroke-linecap="round" stroke-linejoin="round"/>
<path d="M14.4998 14.1667H5.33317V2.5H3.6665" stroke="#00AED9" stroke-width="1.25" stroke-linecap="round" stroke-linejoin="round"/>
<path d="M5.33447 4.16663L17.0011 4.99996L16.1678 10.8333H5.33447" stroke="#00AED9" stroke-width="1.25" stroke-linecap="round" stroke-linejoin="round"/>
</g>
<defs>
<clipPath id="clip0_228_1851">
<rect width="20" height="20" fill="white" transform="translate(0.333252)"/>
</clipPath>
</defs>
</svg>
