<svg width="25" height="27" viewBox="0 0 25 27" fill="none" xmlns="http://www.w3.org/2000/svg">
<g clip-path="url(#clip0_228_2031)">
<path fill-rule="evenodd" clip-rule="evenodd" d="M-0.41875 6.59167C-0.25492 5.8554 0.147815 5.19802 0.723498 4.72718C1.29918 4.25634 2.01369 3.99995 2.75 4H22.25C22.9863 3.99995 23.7008 4.25634 24.2765 4.72718C24.8522 5.19802 25.2549 5.8554 25.4187 6.59167L12.5 14.69L-0.41875 6.59167ZM-0.5 8.495V20.335L8.92987 14.405L-0.5 8.495ZM10.4866 15.3833L-0.189625 22.095C0.0741557 22.6655 0.490481 23.1474 1.0109 23.4846C1.53131 23.8219 2.13441 24.0006 2.75 24H22.25C22.8655 24.0001 23.4684 23.821 23.9885 23.4835C24.5086 23.1459 24.9246 22.6639 25.188 22.0933L14.5117 15.3817L12.5 16.6433L10.4866 15.3817V15.3833ZM16.0701 14.4067L25.5 20.335V8.495L16.0701 14.405V14.4067Z" fill="white"/>
</g>
<defs>
<clipPath id="clip0_228_2031">
<rect width="24" height="26" fill="white" transform="translate(0.5 0.874634)"/>
</clipPath>
</defs>
</svg>
