<svg width="127" height="41" viewBox="0 0 127 41" fill="none" xmlns="http://www.w3.org/2000/svg">
<g clip-path="url(#clip0_228_1801)">
<path d="M20.4989 40.1782C31.3674 40.1782 40.1781 31.3675 40.1781 20.4991C40.1781 9.63058 31.3674 0.819939 20.4989 0.819939C9.63046 0.819939 0.819824 9.63058 0.819824 20.4991C0.819824 31.3675 9.63046 40.1782 20.4989 40.1782Z" fill="#171C2A"/>
<path d="M20.4991 40.9981C16.4447 40.9981 12.4815 39.7959 9.11041 37.5434C5.73935 35.2909 3.11193 32.0894 1.56041 28.3437C0.0088819 24.598 -0.397068 20.4763 0.393893 16.4999C1.18485 12.5235 3.1372 8.87087 6.00405 6.00402C8.8709 3.13717 12.5235 1.18482 16.4999 0.393863C20.4763 -0.397099 24.598 0.00885138 28.3437 1.56038C32.0895 3.1119 35.291 5.73932 37.5434 9.11038C39.7959 12.4814 40.9982 16.4447 40.9982 20.4991C40.9916 25.9337 38.8298 31.144 34.9869 34.9869C31.144 38.8298 25.9338 40.9916 20.4991 40.9981ZM20.4991 1.6399C16.7691 1.6399 13.1229 2.74597 10.0215 4.81824C6.92013 6.89051 4.50291 9.83591 3.0755 13.282C1.6481 16.728 1.27462 20.52 2.00231 24.1783C2.72999 27.8366 4.52615 31.197 7.16365 33.8345C9.80115 36.472 13.1615 38.2681 16.8198 38.9958C20.4782 39.7235 24.2701 39.35 27.7162 37.9226C31.1622 36.4952 34.1076 34.078 36.1799 30.9766C38.2522 27.8753 39.3582 24.229 39.3582 20.4991C39.3517 15.4993 37.3627 10.7062 33.8273 7.17081C30.292 3.63544 25.4988 1.64641 20.4991 1.6399Z" fill="#00D991"/>
<path d="M15.6502 22.0367L15.5315 22.1557C15.4707 22.2165 15.4707 22.3152 15.5316 22.376L17.3158 24.1576C17.3766 24.2184 17.4753 24.2184 17.5361 24.1575L17.6549 24.0385C17.7157 23.9776 17.7156 23.879 17.6547 23.8182L15.8706 22.0366C15.8097 21.9758 15.711 21.9758 15.6502 22.0367Z" fill="white"/>
<path d="M15.6892 21.1215L15.5704 21.2403C15.5095 21.3012 15.5095 21.3998 15.5704 21.4606L17.0431 22.9333C17.1039 22.9942 17.2025 22.9942 17.2634 22.9333L17.3822 22.8145C17.4431 22.7536 17.4431 22.655 17.3822 22.5942L15.9096 21.1215C15.8487 21.0606 15.7501 21.0606 15.6892 21.1215Z" fill="white"/>
<path d="M25.7269 22.0414L25.6081 22.1603C25.5473 22.2212 25.5474 22.3199 25.6083 22.3807L27.3924 24.1623C27.4533 24.2231 27.5519 24.223 27.6127 24.1621L27.7315 24.0432C27.7923 23.9823 27.7922 23.8837 27.7314 23.8229L25.9472 22.0412C25.8863 21.9804 25.7877 21.9805 25.7269 22.0414Z" fill="white"/>
<path d="M25.7534 21.1223L25.6344 21.241C25.5735 21.3018 25.5734 21.4005 25.6342 21.4613L27.1056 22.9353C27.1664 22.9962 27.2651 22.9963 27.326 22.9355L27.4449 22.8168C27.5058 22.756 27.5059 22.6573 27.4451 22.5964L25.9737 21.1225C25.9129 21.0616 25.8143 21.0615 25.7534 21.1223Z" fill="white"/>
<path fill-rule="evenodd" clip-rule="evenodd" d="M29.9286 23.1435H29.5186C29.4023 22.1728 28.9371 21.2775 28.2096 20.6243C27.4822 19.9712 26.5422 19.6047 25.5647 19.5932C24.5871 19.5816 23.6387 19.9258 22.8961 20.5616C22.1534 21.1974 21.6672 22.0815 21.528 23.0492C21.3108 23.0984 20.4621 23.1435 20.4621 23.1435C20.4621 23.1435 19.6421 23.1025 19.4412 23.0574C19.303 22.0896 18.8176 21.2052 18.0757 20.5687C17.3337 19.9322 16.3857 19.5871 15.4082 19.5976C14.4307 19.6081 13.4904 19.9736 12.7623 20.6259C12.0342 21.2783 11.5681 22.173 11.4507 23.1435H10.9915C10.9089 23.1435 10.8296 23.1763 10.7712 23.2347C10.7128 23.2932 10.6799 23.3724 10.6799 23.4551V23.7789C10.681 23.8602 10.7137 23.9378 10.7712 23.9952C10.8286 24.0526 10.9062 24.0854 10.9874 24.0864H11.4302C11.5454 25.0573 12.0097 25.9532 12.7365 26.6071C13.4632 27.2611 14.4029 27.6286 15.3805 27.6412C16.3581 27.6537 17.307 27.3104 18.0503 26.6753C18.7936 26.0402 19.2806 25.1565 19.4207 24.1889C19.6462 24.1438 20.4416 24.0987 20.4416 24.0987C20.4416 24.0987 21.2862 24.152 21.5075 24.1971C21.628 25.1821 22.1076 26.088 22.8545 26.7413C23.6014 27.3946 24.5631 27.7494 25.5553 27.7377C26.5475 27.7261 27.5006 27.3487 28.2319 26.678C28.9632 26.0073 29.4213 25.0904 29.5186 24.1028H29.9286C30.0098 24.1029 30.0878 24.0711 30.146 24.0145C30.2042 23.9578 30.238 23.8806 30.2402 23.7994V23.4592C30.2402 23.3765 30.2073 23.2973 30.1489 23.2388C30.0905 23.1804 30.0112 23.1476 29.9286 23.1476V23.1435ZM15.4316 26.6939C14.8243 26.6939 14.2306 26.5138 13.7256 26.1764C13.2206 25.839 12.827 25.3594 12.5946 24.7983C12.3622 24.2372 12.3014 23.6197 12.4199 23.0241C12.5383 22.4284 12.8308 21.8812 13.2603 21.4518C13.6897 21.0223 14.2369 20.7299 14.8325 20.6114C15.4282 20.4929 16.0456 20.5537 16.6067 20.7861C17.1679 21.0185 17.6474 21.4121 17.9849 21.9171C18.3223 22.4221 18.5024 23.0158 18.5024 23.6231C18.5024 24.4376 18.1789 25.2186 17.603 25.7945C17.0271 26.3704 16.246 26.6939 15.4316 26.6939ZM25.4967 26.6939C24.8893 26.6939 24.2956 26.5138 23.7906 26.1764C23.2857 25.839 22.8921 25.3594 22.6597 24.7983C22.4272 24.2372 22.3664 23.6197 22.4849 23.0241C22.6034 22.4284 22.8959 21.8812 23.3253 21.4518C23.7548 21.0223 24.3019 20.7299 24.8976 20.6114C25.4933 20.4929 26.1107 20.5537 26.6718 20.7861C27.2329 21.0185 27.7125 21.4121 28.0499 21.9171C28.3873 22.4221 28.5674 23.0158 28.5674 23.6231C28.5674 24.4376 28.2439 25.2186 27.668 25.7945C27.0921 26.3704 26.3111 26.6939 25.4967 26.6939Z" fill="white"/>
<path d="M33.4463 21.9832V14.8126H30.9249C31.0724 14.0244 31.1669 13.2273 31.2078 12.4265L29.7237 13.5294C30.5436 12.5823 29.7237 8.1668 29.7237 8.1668C29.7237 8.1668 28.6413 10.2905 21.893 9.74933C15.1447 9.20815 14.1977 11.8894 14.1977 11.8894C13.3777 11.0695 14.1977 9.72883 14.1977 9.72883C13.9532 9.8418 13.7333 10.0019 13.5507 10.1998C13.3681 10.3978 13.2263 10.6298 13.1334 10.8827C13.0405 11.1355 12.9983 11.4041 13.0093 11.6733C13.0202 11.9424 13.0841 12.2067 13.1973 12.4511L13.2547 12.5618H11.0695L12.5783 13.5294C12.1028 13.8448 11.7374 14.3005 11.5328 14.8331H7.47398V21.9832L5.99805 23.4591L7.47398 24.935L7.88396 32.1056H11.7173L11.3073 24.5169C11.3114 24.4918 11.3103 24.4661 11.3042 24.4414C11.298 24.4167 11.287 24.3935 11.2717 24.3732C11.2563 24.353 11.2371 24.336 11.215 24.3233C11.193 24.3106 11.1686 24.3026 11.1433 24.2996C11.0934 24.2925 11.0426 24.3053 11.002 24.3352C10.9614 24.365 10.9341 24.4097 10.926 24.4595C10.9219 24.4784 10.9219 24.498 10.926 24.5169V30.3386H9.2082V24.4595L8.19965 23.4591L9.2041 22.4588V16.5796H11.1146C11.0695 17.0237 11.0613 17.4707 11.09 17.9162H12.4389C12.5139 17.0973 12.9051 16.3399 13.5294 15.8048C15.8253 12.9677 25.546 14.624 25.546 14.624L26.6242 13.0333L26.2142 14.624C28.5019 15.1693 28.6987 17.867 28.6987 17.867H29.7237C30.0318 17.4801 30.2742 17.0452 30.4411 16.5796H31.7121V22.4588L32.7165 23.4591L31.7121 24.4595V30.3386H29.613L30.023 32.1056H33.8563L33.4463 24.935L34.9222 23.4591L33.4463 21.9832Z" fill="white"/>
<path d="M52.8959 15.4891H56.1962V17.0798H50.8665V7.06396H52.8754L52.8959 15.4891Z" fill="black"/>
<path d="M64.8058 13.7098H58.9922C59.0128 14.22 59.2286 14.7028 59.5949 15.0586C59.951 15.3847 60.42 15.5597 60.9027 15.5465C61.2342 15.5658 61.5638 15.4841 61.8479 15.3121C62.1319 15.14 62.357 14.8858 62.4935 14.583H64.6541C64.4307 15.3384 63.9672 16.0005 63.3339 16.4689C62.649 16.9747 61.8154 17.2386 60.9642 17.2192C60.2481 17.2289 59.5417 17.0523 58.9143 16.7067C58.3118 16.3735 57.818 15.874 57.4917 15.2677C57.1333 14.6088 56.9484 13.8695 56.9546 13.1194C56.9388 12.3657 57.1122 11.62 57.4589 10.9506C57.7768 10.3447 58.2658 9.84574 58.8651 9.51566C59.5096 9.17013 60.2332 8.99911 60.9642 9.01958C61.6781 9.00309 62.3842 9.17114 63.0141 9.50746C63.6035 9.82228 64.088 10.3025 64.4081 10.8891C64.744 11.5195 64.9147 12.2248 64.9041 12.939C64.8917 13.1981 64.8588 13.4558 64.8058 13.7098ZM62.7804 12.3609C62.7829 12.1277 62.7342 11.8967 62.6379 11.6842C62.5416 11.4717 62.3999 11.2829 62.2229 11.131C61.8504 10.815 61.3746 10.6472 60.8863 10.6595C60.4264 10.647 59.9785 10.808 59.6318 11.1105C59.2773 11.4398 59.0556 11.8875 59.0086 12.3691L62.7804 12.3609Z" fill="black"/>
<path d="M66.2941 10.9383C66.5857 10.3473 67.0374 9.85009 67.5979 9.50335C68.1537 9.1667 68.793 8.99335 69.4428 9.00317C69.9836 8.99178 70.5188 9.11431 71.0007 9.35985C71.4199 9.57753 71.7843 9.88729 72.0667 10.2659V9.13026H74.0838V17.0798H72.0585V15.9196C71.782 16.3079 71.4165 16.6242 70.9925 16.842C70.5068 17.0945 69.9655 17.2213 69.4182 17.211C68.7718 17.2173 68.1372 17.038 67.5897 16.6944C67.0322 16.3358 66.584 15.8309 66.2941 15.2349C65.9626 14.5651 65.7967 13.8256 65.8103 13.0784C65.7976 12.3365 65.9635 11.6025 66.2941 10.9383ZM71.7797 11.8484C71.6052 11.5066 71.3363 11.222 71.0048 11.0285C70.687 10.8449 70.3263 10.7487 69.9594 10.7497C69.5902 10.7467 69.2274 10.8448 68.9101 11.0335C68.5928 11.2221 68.3332 11.494 68.1595 11.8197C67.9567 12.1974 67.855 12.6211 67.8644 13.0497C67.855 13.4861 67.9565 13.9178 68.1595 14.3042C68.3378 14.6434 68.6059 14.927 68.9344 15.1242C69.2428 15.3132 69.5977 15.4126 69.9594 15.4112C70.3263 15.4122 70.687 15.316 71.0048 15.1324C71.3363 14.9389 71.6052 14.6543 71.7797 14.3124C71.9809 13.9256 72.0796 13.4937 72.0667 13.0579C72.0696 12.637 71.9697 12.2219 71.7756 11.8484H71.7797Z" fill="black"/>
<path d="M79.0731 9.37624C79.5079 9.13073 80.0005 9.00616 80.4998 9.01545V11.1269H79.9709C79.4566 11.0897 78.9472 11.2478 78.5442 11.5696C78.2203 11.8648 78.0645 12.3896 78.0645 13.1194V17.0798H76.0515V9.13025H78.0645V10.3602C78.3103 9.9508 78.6577 9.61186 79.0731 9.37624Z" fill="black"/>
<path d="M88.5518 9.91334C88.8562 10.2522 89.0901 10.6481 89.24 11.0781C89.3899 11.5082 89.4528 11.9637 89.4251 12.4183V17.0798H87.4162V12.7094C87.4527 12.1816 87.2838 11.6601 86.9447 11.254C86.7784 11.0817 86.577 10.9472 86.3542 10.8595C86.1314 10.7718 85.8924 10.733 85.6533 10.7456C85.4112 10.7288 85.1684 10.7637 84.9408 10.8478C84.7132 10.9319 84.5061 11.0633 84.3331 11.2335C84.1608 11.4362 84.0301 11.6709 83.9485 11.9241C83.8669 12.1774 83.836 12.4442 83.8575 12.7094V17.0798H81.8486V9.13027H83.8575V10.1224C84.1306 9.77125 84.4833 9.49017 84.8866 9.30247C85.3152 9.10277 85.7831 9.00189 86.2559 9.00728C86.6806 8.99051 87.104 9.06242 87.4993 9.21842C87.8946 9.37443 88.2531 9.6111 88.5518 9.91334Z" fill="black"/>
<path d="M61.9032 24.7096L59.5786 32.6591H57.4139L55.9626 27.108L54.5153 32.6591H52.3547L50.0178 24.7096H52.0677L53.4371 30.7486L54.9622 24.6932H57.0859L58.5741 30.7486L59.9845 24.7096H61.9032Z" fill="black"/>
<path d="M63.1332 23.4263C63.0214 23.3168 62.9325 23.186 62.8719 23.0417C62.8113 22.8974 62.78 22.7424 62.78 22.5859C62.78 22.4293 62.8113 22.2744 62.8719 22.1301C62.9325 21.9857 63.0214 21.855 63.1332 21.7454C63.3758 21.529 63.6896 21.4094 64.0147 21.4094C64.3398 21.4094 64.6535 21.529 64.8961 21.7454C65.0079 21.855 65.0968 21.9857 65.1574 22.1301C65.218 22.2744 65.2493 22.4293 65.2493 22.5859C65.2493 22.7424 65.218 22.8974 65.1574 23.0417C65.0968 23.186 65.0079 23.3168 64.8961 23.4263C64.6535 23.6427 64.3398 23.7623 64.0147 23.7623C63.6896 23.7623 63.3758 23.6427 63.1332 23.4263ZM65.0068 24.7096V32.6591H63.0143V24.7096H65.0068Z" fill="black"/>
<path d="M69.3239 26.3577V30.2033C69.3143 30.3084 69.3264 30.4143 69.3595 30.5145C69.3927 30.6147 69.4462 30.7069 69.5166 30.7855C69.7048 30.9228 69.9365 30.9869 70.1685 30.9659H71.1032V32.6591H69.8405C68.1486 32.6591 67.3014 31.8392 67.2986 30.1992V26.3577H66.3516V24.7178H67.2986V22.7458H69.3239V24.7096H71.1032V26.3495L69.3239 26.3577Z" fill="black"/>
<path d="M78.6344 25.0089C79.1101 25.2769 79.4932 25.6829 79.7332 26.1732C80.015 26.7467 80.1556 27.3793 80.1432 28.0181V32.6591H78.1342V28.2887C78.1708 27.7609 78.0019 27.2394 77.6628 26.8333C77.4964 26.661 77.2951 26.5265 77.0723 26.4388C76.8495 26.3511 76.6104 26.3123 76.3713 26.3249C76.1291 26.312 75.8869 26.3506 75.6608 26.4382C75.4346 26.5259 75.2296 26.6605 75.0594 26.8333C74.7091 27.2343 74.5309 27.7572 74.5633 28.2887V32.6591H72.5503V22.0406H74.5633V25.7017C74.8298 25.3442 75.1843 25.0617 75.5924 24.8818C76.0437 24.6807 76.5333 24.58 77.0273 24.5866C77.5907 24.5848 78.1447 24.7304 78.6344 25.0089Z" fill="black"/>
<path d="M87.0227 32.3885C86.4933 32.1729 86.0337 31.8154 85.6944 31.3554C85.3645 30.8894 85.1895 30.3314 85.1942 29.7605H87.3466C87.3488 29.9464 87.3889 30.1298 87.4643 30.2997C87.5397 30.4696 87.6489 30.6223 87.7853 30.7486C88.0862 31.0036 88.4739 31.1328 88.8676 31.1094C89.2638 31.1345 89.6557 31.015 89.9705 30.7732C90.1023 30.668 90.208 30.5336 90.2791 30.3807C90.3502 30.2277 90.3849 30.0604 90.3804 29.8917C90.3908 29.621 90.2935 29.3571 90.1099 29.1579C89.9176 28.9609 89.6856 28.8072 89.4293 28.7069C89.0601 28.5645 88.6838 28.4413 88.3018 28.3379C87.7597 28.1889 87.2293 27.9998 86.7152 27.7721C86.3023 27.5814 85.9431 27.2912 85.6698 26.9276C85.3545 26.4896 85.197 25.9578 85.2229 25.4188C85.2099 24.8693 85.3643 24.3288 85.6657 23.8691C85.9753 23.4173 86.4098 23.0654 86.9161 22.8564C87.4973 22.6128 88.1228 22.4927 88.7528 22.5039C89.6533 22.4618 90.5412 22.7279 91.2701 23.2582C91.592 23.5086 91.8548 23.8269 92.0398 24.1904C92.2247 24.554 92.3273 24.9538 92.3402 25.3614H90.1304C90.1234 25.1954 90.0805 25.0329 90.0048 24.885C89.9291 24.7371 89.8223 24.6073 89.6917 24.5046C89.3823 24.2674 88.9986 24.1483 88.6093 24.1684C88.2698 24.1513 87.9358 24.2592 87.6705 24.4718C87.5495 24.5812 87.4549 24.7166 87.3938 24.8679C87.3327 25.0191 87.3068 25.1823 87.3179 25.345C87.3138 25.4688 87.3354 25.592 87.3813 25.707C87.4271 25.822 87.4963 25.9263 87.5844 26.0133C87.7755 26.1917 87.9998 26.331 88.2444 26.4233C88.608 26.5693 88.9789 26.6966 89.3555 26.8046C89.8995 26.9555 90.4312 27.1473 90.9462 27.3785C91.3664 27.5725 91.7314 27.8685 92.0081 28.2395C92.3239 28.6756 92.4816 29.2063 92.455 29.7441C92.4601 30.2701 92.3181 30.787 92.045 31.2365C91.7479 31.7123 91.3212 32.0935 90.815 32.3352C90.2193 32.6204 89.5647 32.7609 88.9045 32.7452C88.2596 32.7542 87.6195 32.6329 87.0227 32.3885Z" fill="black"/>
<path d="M101.696 24.7095V32.6591H99.6706V31.6546C99.4073 32.007 99.0608 32.2887 98.6621 32.4746C98.2374 32.673 97.7737 32.7739 97.305 32.7698C96.7325 32.7739 96.1683 32.6329 95.6651 32.3598C95.1836 32.0933 94.7925 31.6894 94.5418 31.1996C94.2554 30.6335 94.1145 30.0051 94.1318 29.371V24.7095H96.1407V29.1087C96.1041 29.6365 96.2731 30.158 96.6122 30.5641C96.7785 30.7363 96.9799 30.8708 97.2027 30.9585C97.4255 31.0462 97.6645 31.0851 97.9036 31.0725C98.1453 31.0861 98.3871 31.0478 98.6127 30.9601C98.8383 30.8724 99.0425 30.7374 99.2115 30.5641C99.5461 30.1561 99.7106 29.6348 99.6706 29.1087V24.7095H101.696Z" fill="black"/>
<path d="M115.902 25.4926C116.212 25.8285 116.451 26.2235 116.604 26.6539C116.758 27.0844 116.823 27.5414 116.795 27.9976V32.6591H114.787V28.2887C114.823 27.7696 114.654 27.2569 114.315 26.862C114.149 26.6906 113.95 26.556 113.728 26.467C113.507 26.378 113.27 26.3366 113.032 26.3454C112.793 26.3331 112.553 26.3709 112.33 26.4563C112.106 26.5418 111.902 26.6729 111.732 26.8415C111.56 27.0385 111.429 27.2681 111.346 27.5166C111.264 27.7652 111.232 28.0277 111.252 28.2887V32.6591H109.244V28.2887C109.279 27.7691 109.108 27.2565 108.768 26.862C108.6 26.6932 108.398 26.5618 108.175 26.4764C107.953 26.3909 107.715 26.3532 107.477 26.3659C107.235 26.3529 106.994 26.3903 106.768 26.4757C106.542 26.5611 106.337 26.6927 106.165 26.862C105.995 27.0565 105.865 27.2827 105.783 27.5275C105.7 27.7724 105.667 28.031 105.685 28.2887V32.6591H103.676V24.7096H105.685V25.673C105.949 25.3331 106.29 25.0618 106.681 24.8817C107.101 24.6867 107.559 24.5886 108.022 24.5948C108.602 24.5895 109.175 24.7305 109.686 25.0047C110.168 25.2601 110.563 25.6524 110.822 26.1322C111.083 25.6578 111.474 25.268 111.949 25.0088C112.577 24.6691 113.295 24.5331 114.003 24.6198C114.711 24.7065 115.375 25.0116 115.902 25.4926Z" fill="black"/>
<path d="M118.85 23.4263C118.738 23.3168 118.649 23.186 118.588 23.0417C118.528 22.8974 118.496 22.7424 118.496 22.5859C118.496 22.4293 118.528 22.2744 118.588 22.13C118.649 21.9857 118.738 21.855 118.85 21.7454C119.093 21.5287 119.407 21.409 119.733 21.409C120.059 21.409 120.373 21.5287 120.617 21.7454C120.839 21.9684 120.965 22.2707 120.965 22.5859C120.965 22.9011 120.839 23.2034 120.617 23.4263C120.373 23.643 120.059 23.7628 119.733 23.7628C119.407 23.7628 119.093 23.643 118.85 23.4263ZM120.723 24.7096V32.6591H118.714V24.7096H120.723Z" fill="black"/>
<path d="M125.04 26.3577V30.2033C125.03 30.3088 125.042 30.4151 125.076 30.5155C125.11 30.6158 125.165 30.7078 125.237 30.7855C125.425 30.9238 125.657 30.988 125.889 30.9659H126.82V32.6591H125.557C123.865 32.6591 123.019 31.8392 123.019 30.1992V26.3577H122.072V24.7178H123.019V22.7458H125.04V24.7096H126.82V26.3495L125.04 26.3577Z" fill="black"/>
</g>
<defs>
<clipPath id="clip0_228_1801">
<rect width="126.943" height="40.9982" fill="white"/>
</clipPath>
</defs>
</svg>
