<svg width="21" height="20" viewBox="0 0 21 20" fill="none" xmlns="http://www.w3.org/2000/svg">
<g clip-path="url(#clip0_228_1926)">
<path d="M4.17041 15.8334C4.17041 16.2754 4.346 16.6994 4.65857 17.0119C4.97113 17.3245 5.39505 17.5001 5.83708 17.5001C6.2791 17.5001 6.70303 17.3245 7.01559 17.0119C7.32815 16.6994 7.50374 16.2754 7.50374 15.8334C7.50374 15.3914 7.32815 14.9675 7.01559 14.6549C6.70303 14.3423 6.2791 14.1667 5.83708 14.1667C5.39505 14.1667 4.97113 14.3423 4.65857 14.6549C4.346 14.9675 4.17041 15.3914 4.17041 15.8334Z" stroke="#D9004E" stroke-width="1.25" stroke-linecap="round" stroke-linejoin="round"/>
<path d="M13.3345 15.8334C13.3345 16.2754 13.5101 16.6994 13.8226 17.0119C14.1352 17.3245 14.5591 17.5001 15.0011 17.5001C15.4432 17.5001 15.8671 17.3245 16.1797 17.0119C16.4922 16.6994 16.6678 16.2754 16.6678 15.8334C16.6678 15.3914 16.4922 14.9675 16.1797 14.6549C15.8671 14.3423 15.4432 14.1667 15.0011 14.1667C14.5591 14.1667 14.1352 14.3423 13.8226 14.6549C13.5101 14.9675 13.3345 15.3914 13.3345 15.8334Z" stroke="#D9004E" stroke-width="1.25" stroke-linecap="round" stroke-linejoin="round"/>
<path d="M15.0037 14.1667H5.83708V2.5H4.17041" stroke="#D9004E" stroke-width="1.25" stroke-linecap="round" stroke-linejoin="round"/>
<path d="M5.83447 4.16675L17.5011 5.00008L16.6678 10.8334H5.83447" stroke="#D9004E" stroke-width="1.25" stroke-linecap="round" stroke-linejoin="round"/>
</g>
<defs>
<clipPath id="clip0_228_1926">
<rect width="20" height="20" fill="white" transform="translate(0.833252)"/>
</clipPath>
</defs>
</svg>
